<svg xmlns="http://www.w3.org/2000/svg" viewBox="0 0 32 32" id="camera">
  <path fill="#e71e25" d="M31 25.63c0 .757-.615 1.37-1.373 1.37H2.373A1.371 1.371 0 0 1 1 25.63V8.37C1 7.613 1.615 7 2.373 7h27.254C30.385 7 31 7.613 31 8.37v17.26z"></path>
  <path fill="#3d3c42" d="M1 9.005h30v3H1zM4.5 5h4v2h-4zM22.5 5h4v2h-4z"></path>
  <path fill="#d9d9db" d="M3.5 7h6v3h-6z"></path>
  <circle cx="20.805" cy="17.697" r="6.728" fill="#3d3c42"></circle>
  <circle cx="20.805" cy="17.697" r="4.668" fill="#6c6b70"></circle>
  <path d="M29.627 6.5H27V5a.5.5 0 0 0-.5-.5h-4a.5.5 0 0 0-.5.5v1.5H9V5a.5.5 0 0 0-.5-.5h-4A.5.5 0 0 0 4 5v1.5H2.373A1.874 1.874 0 0 0 .5 8.37v17.26c0 1.031.84 1.87 1.873 1.87h27.254a1.874 1.874 0 0 0 1.873-1.87V8.37c0-1.031-.84-1.87-1.873-1.87zm-8.821 4.969a6.235 6.235 0 0 1 6.228 6.228c0 3.434-2.793 6.228-6.228 6.228s-6.228-2.794-6.228-6.228a6.235 6.235 0 0 1 6.228-6.228zm0-1c-1.361 0-2.63.385-3.718 1.041-.02-.002-.037-.012-.058-.012H1.5V9.5H3v.5a.5.5 0 0 0 .5.5h6a.5.5 0 0 0 .5-.5v-.5h20.5v1.999h-5.995a7.179 7.179 0 0 0-3.699-1.03zM8.5 7.5H9v2H7v-2h1.5zm22 .87v.13H10v-1h19.627c.481 0 .873.39.873.87zM23 5.5h3v1h-3v-1zm-18 0h3v1H5v-1zm-.5 2H6v2H4v-2h.5zm-2.127 0H3v1H1.5v-.13c0-.48.392-.87.873-.87zm27.254 19H2.373a.873.873 0 0 1-.873-.87V12.499h14.296a7.202 7.202 0 0 0-2.218 5.198c0 3.985 3.243 7.228 7.228 7.228s7.228-3.242 7.228-7.228a7.202 7.202 0 0 0-2.218-5.198H30.5V25.63c0 .479-.392.87-.873.87z"></path>
  <path d="M20.806 22.865a5.173 5.173 0 0 0 5.168-5.168 5.173 5.173 0 0 0-5.168-5.168 5.173 5.173 0 0 0-5.168 5.168 5.173 5.173 0 0 0 5.168 5.168zm0-9.336a4.173 4.173 0 0 1 4.168 4.168c0 2.298-1.87 4.168-4.168 4.168s-4.168-1.87-4.168-4.168a4.172 4.172 0 0 1 4.168-4.168z"></path>
</svg>
