<svg xmlns="http://www.w3.org/2000/svg" viewBox="0 0 512 512" id="working-couch">
  <path fill="#ff5d58" d="M217.9 82.6H98.4c-21 0-38.1 17-38.1 38.1v282.4H256V120.7c0-21-17-38.1-38.1-38.1zm195.7 0H294.1c-21 0-38.1 17-38.1 38.1v282.4h195.6V120.7c0-21-17-38.1-38-38.1z"></path>
  <path fill="#f63b58" d="M219.6 82.6h-35.8c7 12.4 10.9 26.7 10.9 42 0 47.5-38.5 86-86 86-17.9 0-34.5-5.5-48.3-14.8V403H256V119c0-20.1-16.3-36.4-36.4-36.4z"></path>
  <path fill="#f63b58" d="M415.2 82.6h-95.4c7 12.4 10.9 26.7 10.9 42 0 43.7-32.5 79.7-74.7 85.3V403h195.6V119c0-20.1-16.3-36.4-36.4-36.4z"></path>
  <path fill="#898989" d="M99.9 437H70.5c-5.6 0-10.1-4.5-10.1-10.1v-36.8H110v36.8c-.1 5.6-4.6 10.1-10.1 10.1z"></path>
  <path fill="#aaa" d="M290.2 280.3h-132v-14.7h117.3c8.1.1 14.7 6.6 14.7 14.7z"></path>
  <path fill="#898989" d="M441.5 437h-29.4c-5.6 0-10.1-4.5-10.1-10.1v-36.8h49.6v36.8c0 5.6-4.5 10.1-10.1 10.1z"></path>
  <path fill="#ff5d58" d="M80.9 224.9H36.8c-16 0-29 13-29 29v120.2c0 16 13 29 29 29h73.1V253.9c0-16-12.9-29-29-29zm394.3 0h-44.1c-16 0-29 13-29 29v149.2h73.1c16 0 29-13 29-29V253.9c0-16-13-29-29-29zM109.9 338H402v65H109.9z"></path>
  <path fill="#cc324f" d="M356.7 273H155.3c-25 0-45.3 20.3-45.3 45.3V338h292.1v-19.7c0-25-20.3-45.3-45.4-45.3z"></path>
  <circle cx="122.6" cy="167.6" r="8" fill="#cc324f"></circle>
  <circle cx="193.5" cy="167.6" r="8" fill="#cc324f"></circle>
  <circle cx="318" cy="167.6" r="8" fill="#cc324f"></circle>
  <circle cx="388.9" cy="167.6" r="8" fill="#cc324f"></circle>
  <path fill="#d2dbe2" d="M239.3 192.8H175c-9.3 0-16.8 7.5-16.8 16.8v63.3H256v-63.3c0-9.3-7.5-16.8-16.7-16.8zm98.6 80.2h-32.3c-5.2 0-9.4-4.2-9.4-9.4v-48.4h51.1v48.4c0 5.2-4.2 9.4-9.4 9.4z"></path>
  <path fill="#aaa" d="M239.3 192.8h-26.8c.1 1.4.2 2.8.2 4.2 0 25.4-20.5 45.9-45.8 45.9-2.9 0-5.7-.3-8.5-.8v30.7H256v-63.3c0-9.2-7.5-16.7-16.7-16.7z"></path>
  <path fill="#d2dbe2" d="M347.1 261.6h-4.6c-2.6 0-4.8-2.1-4.8-4.8V220c0-2.6 2.1-4.8 4.8-4.8h4.6c12.8 0 23.1 10.4 23.1 23.1.1 12.9-10.3 23.3-23.1 23.3zm.2-36.8V252c7.4-.1 13.4-6.1 13.4-13.6s-6-13.5-13.4-13.6z"></path>
  <circle cx="206.9" cy="232.7" r="8" fill="#fff"></circle>
  <path fill="#aaa" d="M332.8 215.3c1.2 3.3 1.9 6.8 1.9 10.5 0 16.4-13.3 29.8-29.8 29.8-3.1 0-6-.5-8.8-1.3v9.5c0 5.2 4.2 9.4 9.4 9.4h32.3c5.2 0 9.4-4.2 9.4-9.4v-48.4h-14.4z"></path>
  <path fill="#111" d="M476.4 411H35.6C16 411 0 395 0 375.3V252.7C0 233 16 217 35.6 217h46.6c19.8 0 35.8 16 35.8 35.7V330h276v-77.3c0-19.7 16.1-35.7 35.8-35.7h46.6c19.6 0 35.6 16 35.6 35.7v122.6c0 19.7-16 35.7-35.6 35.7zM35.6 233c-11 0-19.6 8.6-19.6 19.7v122.6c0 10.9 8.8 19.7 19.6 19.7h440.8c10.8 0 19.6-8.8 19.6-19.7V252.7c0-11-8.6-19.7-19.6-19.7h-46.6c-10.9 0-19.8 8.8-19.8 19.7V338c0 4.4-3.6 8-8 8H110c-4.4 0-8-3.6-8-8v-85.3c0-10.8-8.9-19.7-19.8-19.7H35.6z"></path>
  <path fill="#111" d="M402.1 346H109.9c-4.4 0-8-3.6-8-8v-19.7c0-29.4 23.9-53.3 53.3-53.3h201.4c29.4 0 53.3 23.9 53.3 53.3V338c.2 4.5-3.4 8-7.8 8zm-284.2-16H394v-11.7c0-20.6-16.8-37.3-37.3-37.3H155.3c-20.6 0-37.3 16.8-37.3 37.3V330zm-8 107.4H60.4c-4.4 0-8-3.6-8-8v-25.9c0-4.4 3.6-8 8-8H110c4.4 0 8 3.6 8 8v25.9c-.1 4.4-3.6 8-8.1 8zm-41.5-16H102v-9.9H68.4v9.9zm383.2 16H402c-4.4 0-8-3.6-8-8v-25.9c0-4.4 3.6-8 8-8h49.6c4.4 0 8 3.6 8 8v25.9c0 4.4-3.6 8-8 8zm-41.5-16h33.6v-9.9h-33.6v9.9z"></path>
  <circle cx="122.6" cy="167.6" r="8" fill="#111"></circle>
  <circle cx="193.5" cy="167.6" r="8" fill="#111"></circle>
  <circle cx="318" cy="167.6" r="8" fill="#111"></circle>
  <circle cx="388.9" cy="167.6" r="8" fill="#111"></circle>
  <path fill="#111" d="M256 281h-97.8c-4.4 0-8-3.6-8-8v-63.3c0-13.6 11.1-24.8 24.8-24.8h64.3c13.6 0 24.8 11.1 24.8 24.8V273c-.1 4.5-3.7 8-8.1 8zm-89.8-16H248v-55.3c0-4.8-3.9-8.8-8.8-8.8h-64.3c-4.8 0-8.8 3.9-8.8 8.8V265zm176.3 16h-46.3c-4.4 0-8-3.6-8-8v-53c0-4.4 3.6-8 8-8h46.3c4.4 0 8 3.6 8 8v53c0 4.5-3.6 8-8 8zm-38.3-16h30.3v-37h-30.3v37z"></path>
  <path fill="#111" d="M347.1 264.8h-4.6c-4.4 0-8-3.6-8-8V220c0-4.4 3.6-8 8-8h4.6c14.5 0 26.4 11.8 26.4 26.4s-11.8 26.4-26.4 26.4zm3.4-36.2v19.6c4.1-1.4 7-5.3 7-9.8s-2.9-8.4-7-9.8z"></path>
  <circle cx="206.9" cy="232.7" r="8" fill="#111"></circle>
  <path fill="#111" d="M256 280.8c-4.4 0-8-3.6-8-8V119.1c0-24.5 19.9-44.4 44.4-44.4h122.7c24.5 0 44.4 19.9 44.4 44.4v105.8c0 4.4-3.6 8-8 8s-8-3.6-8-8V119.1c0-15.7-12.8-28.4-28.4-28.4H292.4c-15.7 0-28.4 12.8-28.4 28.4v153.7c0 4.4-3.6 8-8 8z"></path>
  <path fill="#111" d="M256 280.8c-4.4 0-8-3.6-8-8V119.1c0-15.7-12.8-28.4-28.4-28.4H96.8c-15.7 0-28.4 12.8-28.4 28.4v105.8c0 4.4-3.6 8-8 8s-8-3.6-8-8V119.1c0-24.5 19.9-44.4 44.4-44.4h122.7c24.5 0 44.4 19.9 44.4 44.4v153.7c.1 4.4-3.5 8-7.9 8z"></path>
</svg>
