<svg xmlns="http://www.w3.org/2000/svg" width="64" height="64" enable-background="new 0 0 64 64" viewBox="0 0 64 64" id="gallery">
  <g>
    <g>
      <g>
        <path fill="#9E9D9E" d="M61,17h-8c-0.552,0-1,0.447-1,1v26H11c-0.552,0-1,0.447-1,1v8c0,0.553,0.448,1,1,1h50
				c0.552,0,1-0.447,1-1V18C62,17.447,61.552,17,61,17z"></path>
        <path fill="#4DAF4E" d="M53.537,24.156c-0.289-0.184-0.65-0.206-0.96-0.063l-14.319,6.683l-6.505-7.435
				c-0.285-0.327-0.748-0.433-1.146-0.261l-6.235,2.672l-5.539-8.308c-0.163-0.244-0.425-0.404-0.716-0.438
				c-0.29-0.039-0.583,0.061-0.798,0.262l-15,14C2.115,31.458,2,31.723,2,32v13c0,0.553,0.448,1,1,1h50c0.552,0,1-0.447,1-1V25
				C54,24.658,53.826,24.34,53.537,24.156z"></path>
        <path fill="#478FCC" d="M53,10H3c-0.552,0-1,0.447-1,1v21c0,0.398,0.236,0.759,0.602,0.917c0.364,0.159,0.79,0.086,1.081-0.186
				l14.139-13.196l5.347,8.02c0.268,0.4,0.783,0.555,1.226,0.364l6.332-2.714l6.521,7.453C37.442,32.881,37.718,33,38,33
				c0.143,0,0.287-0.03,0.422-0.094l15-7C53.775,25.742,54,25.389,54,25V11C54,10.447,53.552,10,53,10z"></path>
        <path fill="#FEEA3A" d="M43,14c-3.309,0-6,2.691-6,6s2.691,6,6,6s6-2.691,6-6S46.309,14,43,14z"></path>
      </g>
      <path d="M61,17h-7v-6.001c0-0.553-0.448-1-1-1H3c-0.552,0-1,0.447-1,1v34c0,0.553,0.448,1,1,1h7V53c0,0.553,0.448,1,1,1h50
			c0.552,0,1-0.447,1-1V18C62,17.447,61.552,17,61,17z M4,11.999h48v12.364l-13.742,6.413l-6.505-7.435
			c-0.285-0.327-0.748-0.433-1.146-0.261l-6.235,2.672l-5.539-8.308c-0.163-0.244-0.425-0.404-0.716-0.438
			c-0.29-0.039-0.583,0.061-0.798,0.262L4,29.698V11.999z M4,43.999V32.435l13.821-12.899l5.347,8.02
			c0.268,0.4,0.783,0.555,1.226,0.364l6.332-2.714l6.521,7.453C37.442,32.881,37.718,33,38,33c0.143,0,0.287-0.03,0.422-0.094
			L52,26.57v17.429H4z M60,52H12v-6.001h41c0.552,0,1-0.447,1-1V19h6V52z"></path>
      <path d="M43,26c3.309,0,6-2.691,6-6s-2.691-6-6-6s-6,2.691-6,6S39.691,26,43,26z M43,16c2.206,0,4,1.794,4,4s-1.794,4-4,4
			s-4-1.794-4-4S40.794,16,43,16z"></path>
    </g>
  </g>
</svg>
