<svg xmlns="http://www.w3.org/2000/svg" viewBox="0 0 64 64" id="new-phone">
  <g>
    <path fill="#43525b" d="M51,55a7,7,0,0,1-7,7H20a7,7,0,0,1-7-7V9a7,7,0,0,1,7-7H44a7,7,0,0,1,7,6.921Z"></path>
    <path fill="#69737a" d="M22,60H46a6.963,6.963,0,0,0,3.846-1.154A6.963,6.963,0,0,0,51,55V8.921A7,7,0,0,0,44,2H20a6.963,6.963,0,0,0-3.846,1.154A6.963,6.963,0,0,0,15,7V53A7,7,0,0,0,22,60Z"></path>
    <path fill="#6ec5e7" d="M47,10.17V9a3,3,0,0,0-3-3H20a3,3,0,0,0-3,3V55a3,3,0,0,0,3,3H44a3,3,0,0,0,3-3Z"></path>
    <path fill="#b5deeb" d="M44,6H20a2.983,2.983,0,0,0-.86.14A2.983,2.983,0,0,0,19,7V53a3,3,0,0,0,3,3H46a2.983,2.983,0,0,0,.86-.14A2.983,2.983,0,0,0,47,55V9A3,3,0,0,0,44,6Z"></path>
    <circle cx="32" cy="59" r="3" fill="#2e393f"></circle>
    <path fill="#37815b" d="M21,14a1.856,1.856,0,0,1-.83,1.55l-1.31.87.31,1.55a1.872,1.872,0,0,1-1.84,2.24,2.2,2.2,0,0,1-.36-.04l-1.55-.31-.87,1.31a1.862,1.862,0,0,1-3.1,0l-.87-1.31-1.55.31a1.872,1.872,0,0,1-2.24-1.84,2.2,2.2,0,0,1,.04-.36l.31-1.55-1.31-.87a1.862,1.862,0,0,1,0-3.1l1.31-.87-.31-1.55A1.872,1.872,0,0,1,8.67,7.79a2.2,2.2,0,0,1,.36.04l1.55.31.87-1.31a1.862,1.862,0,0,1,3.1,0l.87,1.31,1.55-.31a1.872,1.872,0,0,1,2.24,1.84,2.2,2.2,0,0,1-.04.36l-.31,1.55,1.31.87A1.856,1.856,0,0,1,21,14Z"></path>
    <path fill="#7bbf9f" d="M18,14a1.162,1.162,0,0,1-.519.969l-.819.543.194.969a1.171,1.171,0,0,1-1.15,1.4,1.325,1.325,0,0,1-.225-.025l-.969-.194-.543.819a1.164,1.164,0,0,1-1.938,0l-.543-.819-.969.194a1.171,1.171,0,0,1-1.4-1.15,1.325,1.325,0,0,1,.025-.225l.194-.969-.819-.543a1.164,1.164,0,0,1,0-1.938l.819-.544-.194-.968a1.169,1.169,0,0,1,1.15-1.4,1.325,1.325,0,0,1,.225.025l.969.194.543-.819a1.164,1.164,0,0,1,1.938,0l.543.819.969-.194a1.176,1.176,0,0,1,1.056.318,1.189,1.189,0,0,1,.344.832,1.325,1.325,0,0,1-.025.225l-.194.968.819.544A1.162,1.162,0,0,1,18,14Z"></path>
    <rect width="6" height="2" x="10" y="13" fill="#fff"></rect>
    <rect width="5.657" height="2" x="24.172" y="17" fill="#fff" transform="rotate(-45 27 18)"></rect>
    <rect width="14.142" height="2" x="22.929" y="20" fill="#fff" transform="rotate(-45 30 21)"></rect>
    <rect width="4.243" height="2" x="33.379" y="43.5" fill="#fff" transform="rotate(-45 35.5 44.5)"></rect>
    <rect width="11.314" height="2" x="32.343" y="47" fill="#fff" transform="rotate(-45 38 48)"></rect>
    <polygon fill="#fbe47f" points="51 27 48.999 32.999 47 35 49 37 51 42 53 36.999 55 35 53.001 33 51 27"></polygon>
    <polygon fill="#f5b94c" points="55 12 52.999 17.999 51 20 53 22 55 27 57 21.999 59 20 57.001 18 55 12"></polygon>
    <polygon fill="#f5b94c" points="9 41 6.999 46.999 5 49 7 51 9 56 11 50.999 13 49 11.001 47 9 41"></polygon>
  </g>
</svg>
